<svg xmlns="http://www.w3.org/2000/svg" xmlns:xlink="http://www.w3.org/1999/xlink" width="289.727" height="364.814" viewBox="0 0 289.727 364.814">
  <defs>
    <linearGradient id="linear-gradient" x1="0.27" y1="0.498" x2="0.978" y2="0.52" gradientUnits="objectBoundingBox">
      <stop offset="0" stop-color="#744eff"/>
      <stop offset="1" stop-color="#9c88ff"/>
    </linearGradient>
    <linearGradient id="linear-gradient-2" x1="0.828" y1="0.991" x2="0.171" y2="0.006" xlink:href="#linear-gradient"/>
    <linearGradient id="linear-gradient-3" x1="0.208" y1="0.5" x2="1" y2="0.5" xlink:href="#linear-gradient"/>
    <linearGradient id="linear-gradient-4" x1="-0.021" y1="0.489" x2="0.917" y2="0.517" xlink:href="#linear-gradient"/>
    <linearGradient id="linear-gradient-6" x1="0.481" y1="0.074" x2="0.5" y2="0.719" gradientUnits="objectBoundingBox">
      <stop offset="0" stop-color="#2b0246"/>
      <stop offset="1" stop-color="#6a4586"/>
    </linearGradient>
    <linearGradient id="linear-gradient-7" x1="0.003" y1="0.5" x2="1.002" y2="0.5" gradientUnits="objectBoundingBox">
      <stop offset="0" stop-color="#ffcab3"/>
      <stop offset="1" stop-color="#e1aa95"/>
    </linearGradient>
    <linearGradient id="linear-gradient-8" x1="0.497" y1="0.242" x2="0.515" y2="0.994" xlink:href="#linear-gradient-7"/>
    <linearGradient id="linear-gradient-9" x1="0" y1="0.5" x2="1" y2="0.5" xlink:href="#linear-gradient-6"/>
    <linearGradient id="linear-gradient-10" x1="0" y1="0.5" x2="1" y2="0.5" xlink:href="#linear-gradient-6"/>
    <linearGradient id="linear-gradient-11" x1="0.394" y1="0.983" x2="0.445" y2="0.188" xlink:href="#linear-gradient-7"/>
    <linearGradient id="linear-gradient-12" x1="0.446" y1="0.978" x2="0.513" y2="0.172" gradientUnits="objectBoundingBox">
      <stop offset="0" stop-color="#e2a9bf"/>
      <stop offset="1" stop-color="#f5dce5"/>
    </linearGradient>
  </defs>
  <g id="Grupo_67" data-name="Grupo 67" transform="translate(-39.8 -58)">
    <g id="_2" data-name="2" transform="translate(-600.854 -163)">
      <path id="Background" d="M31.5,0H195.608a31.5,31.5,0,0,1,31.5,31.5V204.233a31.5,31.5,0,0,1-31.5,31.5H31.5A31.5,31.5,0,0,1,0,204.233V31.5A31.5,31.5,0,0,1,31.5,0Z" transform="translate(703.273 221)" fill="#a7d364" opacity="0.225"/>
      <g id="Gear" transform="translate(734.455 251.494)">
        <path id="Trazado_129" data-name="Trazado 129" d="M769.5,408.082a10.638,10.638,0,0,0-.9-4.091c-.126-.28-.253-.542-.4-.8l2.194-1.409-1.481-2.258-2.33,1.49a10.709,10.709,0,0,0-3.72-2.546l.759-2.637L761,395.07l-.777,2.709a10.619,10.619,0,0,0-4.741.434l-.686-2.384-2.628.759.813,2.826a10.63,10.63,0,0,0-3.079,3.061l-2.492-1.147-1.138,2.483,2.429,1.12a10.7,10.7,0,0,0-.506,4.678l-2.664.659.659,2.655,2.709-.659c.054.145.117.289.181.433a10.64,10.64,0,0,0,2.339,3.35l-1.364,2.619,2.429,1.264,1.165-2.23a10.762,10.762,0,0,0,4.614,1.345l.7,2.817,2.655-.659-.587-2.357a10.673,10.673,0,0,0,4.416-2.041l1.978,1.806,1.806-2.014-1.905-1.752a10.774,10.774,0,0,0,1.887-3.973l3.1-.054v-2.709Zm-10.357,3.964a1.706,1.706,0,1,1,0,.009Z" transform="translate(-745.53 -268.379)" fill="#748f4a"/>
        <path id="Trazado_130" data-name="Trazado 130" d="M932.392,284.967a11.432,11.432,0,0,0-.975-4.4c-.135-.3-.28-.587-.433-.9l2.357-1.508-1.589-2.474-2.5,1.634a11.515,11.515,0,0,0-4-2.709l.813-2.826-2.826-.813-.831,2.881a11.422,11.422,0,0,0-5.093.47l-.731-2.564-2.826.813.9,3.043a11.421,11.421,0,0,0-3.314,3.3l-2.709-1.228-1.228,2.709,2.619,1.2a11.5,11.5,0,0,0-.542,5.03l-2.863.713.7,2.853,2.862-.713c.063.154.126.316.19.47a11.431,11.431,0,0,0,2.51,3.612l-1.463,2.727,2.61,1.364,1.255-2.393a11.577,11.577,0,0,0,4.958,1.445l.75,3.025,2.853-.7-.632-2.537a11.476,11.476,0,0,0,4.75-2.194l2.131,1.95,1.987-2.167-2.05-1.878a11.576,11.576,0,0,0,2.032-4.271l3.332-.054-.045-2.944Zm-11.134,4.262a4.612,4.612,0,1,1,0,.009Z" transform="translate(-761.155 -256.341)" fill="#748f4a"/>
        <path id="Trazado_131" data-name="Trazado 131" d="M867.069,261.561a5.524,5.524,0,0,0-.47-2.122c-.063-.144-.135-.28-.208-.415l1.138-.731-.767-1.2-1.21.777a5.571,5.571,0,0,0-1.932-1.327l.4-1.373-1.364-.4-.4,1.391a5.516,5.516,0,0,0-2.465.226l-.352-1.237-1.364.388.424,1.472a5.526,5.526,0,0,0-1.6,1.589l-1.3-.6-.641,1.309,1.264.578a5.562,5.562,0,0,0-.262,2.429l-1.382.343.379,1.345,1.382-.343.09.226a5.524,5.524,0,0,0,1.219,1.743L856.937,267l1.264.659.6-1.156a5.6,5.6,0,0,0,2.4.7l.361,1.463,1.382-.343-.307-1.228a5.555,5.555,0,0,0,2.294-1.066l1.029.9.957-1.047-.993-.9a5.6,5.6,0,0,0,.984-2.068h1.607v-1.418Zm-5.418,2.059a1.916,1.916,0,1,1,.036,0Z" transform="translate(-756.107 -254.77)" fill="#744eff" opacity="0.3"/>
        <path id="Trazado_132" data-name="Trazado 132" d="M899.464,330.39a4.6,4.6,0,0,0-.4-1.806c-.054-.117-.108-.235-.172-.352l.948-.605-.641-.993-1.011.641a4.634,4.634,0,0,0-1.607-1.1l.325-1.138-1.138-.325-.334,1.156a4.6,4.6,0,0,0-2.05.19l-.3-1.029-1.138.325.352,1.228a4.6,4.6,0,0,0-1.336,1.327l-1.084-.5-.5,1.075,1.057.488a4.632,4.632,0,0,0-.217,2.023l-1.156.289.289,1.147,1.156-.289.081.19a4.6,4.6,0,0,0,1.011,1.454l-.587,1.129,1.047.551.506-.966a4.659,4.659,0,0,0,2,.578l.3,1.219,1.147-.289-.253-1.02a4.624,4.624,0,0,0,1.914-.9l.858.786.8-.9-.822-.759a4.657,4.657,0,0,0,.813-1.725h1.336V330.3Zm-4.515,1.716a14.915,14.915,0,1,0,.027-.036Z" transform="translate(-759.453 -261.554)" fill="#744eff" opacity="0.3"/>
        <path id="Trazado_133" data-name="Trazado 133" d="M815.746,400.486a3.938,3.938,0,0,0-.334-1.508c0-.1-.1-.2-.145-.3l.813-.524-.542-.849-.9.551a3.965,3.965,0,0,0-1.373-.9l.28-.975-.975-.28-.289.993a3.928,3.928,0,0,0-1.752.163l-.253-.9-.975.28.3,1.047a3.929,3.929,0,0,0-1.138,1.129l-.9-.424-.424.9.9.415a3.957,3.957,0,0,0-.19,1.734l-.984.244.244.984.984-.244.063.163a3.933,3.933,0,0,0,.9,1.237l-.506.966.9.47.433-.822a3.982,3.982,0,0,0,1.707.5l.262,1.038.984-.244-.217-.9a3.946,3.946,0,0,0,1.634-.759l.731.668.686-.749-.7-.65a3.981,3.981,0,0,0,.7-1.472h1.147V400.45Zm-3.829,1.463a.63.63,0,1,1,0,.009Z" transform="translate(-751.479 -268.44)" fill="#744eff" opacity="0.3"/>
        <path id="Trazado_134" data-name="Trazado 134" d="M844.12,441.158a6.855,6.855,0,0,0-.587-2.637c-.081-.181-.162-.352-.253-.515l1.418-.9-.948-1.481-1.508.966a6.9,6.9,0,0,0-2.4-1.643l.488-1.7-1.7-.488-.5,1.725a6.843,6.843,0,0,0-3.052.28l-.442-1.535-1.7.488.524,1.806a6.844,6.844,0,0,0-1.987,1.978l-1.607-.74-.731,1.6,1.571.722a6.89,6.89,0,0,0-.325,3.016l-1.716.424.424,1.707,1.68-.415.117.28a6.855,6.855,0,0,0,1.508,2.158l-.9,1.689,1.562.813.75-1.436a6.936,6.936,0,0,0,2.971.9l.451,1.806,1.707-.424-.379-1.517a6.882,6.882,0,0,0,2.845-1.318l1.273,1.174,1.192-1.3-1.228-1.129a6.946,6.946,0,0,0,1.219-2.565h2V441.14Zm-6.673,2.555A2.556,2.556,0,1,1,839.822,441a2.556,2.556,0,0,1-2.375,2.709Z" transform="translate(-753.594 -272.034)" fill="#a7d364" opacity="0.6"/>
      </g>
      <g id="Arrow" transform="translate(748.72 269.547)">
        <path id="Trazado_135" data-name="Trazado 135" d="M845.011,412.9a2.249,2.249,0,0,0-2.492-1.887c-30.251,3.856-55.706-13.428-65.468-32.951a69.432,69.432,0,0,1-4.714-50.767l1.887,3.468a2.257,2.257,0,0,0,3.061.9h0a2.258,2.258,0,0,0,.9-3.061l-5.292-9.7-10.132,3.964a2.258,2.258,0,0,0-1.282,2.926h0a2.257,2.257,0,0,0,2.926,1.282l3.684-1.445a72.942,72.942,0,0,0,4.921,54.451c9.491,18.963,32.725,35.985,61.025,35.985a71.615,71.615,0,0,0,9.03-.569,2.267,2.267,0,0,0,1.941-2.6Z" transform="translate(-761.328 -279.044)" fill="#cfe0b5"/>
        <path id="Trazado_136" data-name="Trazado 136" d="M909.443,360.04l-3.612,1.634a72.951,72.951,0,0,0-7.793-54.108c-11.567-20.372-39.732-37.457-71.8-31.659a2.267,2.267,0,0,0-1.806,2.709h0a2.248,2.248,0,0,0,2.583,1.752c30.007-5.418,56.339,10.457,67.12,29.438a69.442,69.442,0,0,1,7.4,50.442l-2.068-3.359a2.257,2.257,0,0,0-3.106-.74h0a2.258,2.258,0,0,0-.74,3.106l5.8,9.4,9.933-4.515a2.258,2.258,0,0,0,1.12-2.989h0a2.258,2.258,0,0,0-3.025-1.111Z" transform="translate(-767.444 -274.762)" fill="#cfe0b5"/>
      </g>
      <g id="Icon_3" data-name="Icon 3" transform="translate(778.675 296.401)">
        <circle id="Elipse_3" data-name="Elipse 3" cx="41.312" cy="41.312" r="41.312" transform="translate(0 0)" fill="#748f4a"/>
        <path id="Trazado_137" data-name="Trazado 137" d="M861.3,334.409a4.957,4.957,0,0,0-7.007-.28L832.822,353.95l-11.911-11.8a4.967,4.967,0,0,0-6.989,7.052l18.963,18.755,28.138-26.521a4.957,4.957,0,0,0,.28-7.025Z" transform="translate(-796.251 -307.246)" fill="#fff"/>
      </g>
      <g id="Icon_2" data-name="Icon 2" transform="translate(849.887 371.447)">
        <path id="Trazado_138" data-name="Trazado 138" d="M930,399h7.224a3.612,3.612,0,0,1,3.612,3.612v9.03a3.612,3.612,0,0,1-3.612,3.612H930Z" transform="translate(-878.855 -388.713)" fill="url(#linear-gradient)"/>
        <rect id="Rect치ngulo_22" data-name="Rect치ngulo 22" width="48.871" height="61.329" rx="8.08" transform="translate(0 0)" opacity="0.3" fill="url(#linear-gradient-2)"/>
        <path id="Trazado_139" data-name="Trazado 139" d="M930,419h7.224a3.612,3.612,0,0,1,3.612,3.612v9.03a3.612,3.612,0,0,1-3.612,3.612H930Z" transform="translate(-878.855 -390.652)" fill="url(#linear-gradient-3)"/>
        <path id="Trazado_140" data-name="Trazado 140" d="M930,439h7.224a3.612,3.612,0,0,1,3.612,3.612v9.03a3.612,3.612,0,0,1-3.612,3.612H930Z" transform="translate(-878.855 -392.592)" fill="url(#linear-gradient-4)"/>
        <rect id="Rect치ngulo_23" data-name="Rect치ngulo 23" width="48.871" height="61.329" rx="8.08" transform="translate(4.791 4.791)" fill="url(#linear-gradient-2)"/>
        <path id="Trazado_141" data-name="Trazado 141" d="M919.179,432.756l-4.515-4.425a1.95,1.95,0,0,0-2.763,0l-2.664,2.709-4.262-4.271-5.418-5.418,2.709-2.709a1.95,1.95,0,0,0,0-2.763l-4.461-4.461a1.951,1.951,0,0,0-2.763,0l-1.056,1.057a9.933,9.933,0,0,0,0,14.087l4.045,4.045,6.041,6.05a9.933,9.933,0,0,0,14.087-.117l1.047-1.066a1.95,1.95,0,0,0-.027-2.718Z" transform="translate(-875.078 -389.861)" fill="#fff"/>
      </g>
      <g id="Icon_1" data-name="Icon 1" transform="translate(714.646 242.52)">
        <path id="Trazado_142" data-name="Trazado 142" d="M798.943,275.622a9.933,9.933,0,0,0-2.041.208,13.545,13.545,0,0,0-20.868-13.708,16.478,16.478,0,1,0-32.331,6.385,13.545,13.545,0,0,0-4.349,26.71h.063a13.6,13.6,0,0,0,2.646.262h56.889a9.933,9.933,0,1,0,0-19.866Z" transform="translate(-724.078 -245.219)" fill="#e6a1e7"/>
        <path id="Trazado_143" data-name="Trazado 143" d="M793.943,271.622a9.93,9.93,0,0,0-2.041.208,13.545,13.545,0,0,0-20.868-13.708,16.478,16.478,0,1,0-32.331,6.385,13.545,13.545,0,0,0-4.349,26.71h.063a13.6,13.6,0,0,0,2.646.262h56.889a9.933,9.933,0,1,0,0-19.866Z" transform="translate(-723.593 -244.832)" fill="#e6a1e7" opacity="0.3"/>
        <circle id="Elipse_4" data-name="Elipse 4" cx="5.797" cy="5.797" r="5.797" transform="translate(34.582 15.503)" fill="#fff"/>
        <circle id="Elipse_5" data-name="Elipse 5" cx="4.38" cy="4.38" r="4.38" transform="translate(50.087 22.465)" fill="#fff"/>
        <path id="Trazado_144" data-name="Trazado 144" d="M787.048,292.318h8.181A11.414,11.414,0,0,0,782.37,280.94C784.014,282.322,786.732,285.609,787.048,292.318Z" transform="translate(-729.294 -248.325)" fill="#fff"/>
        <path id="Trazado_145" data-name="Trazado 145" d="M766.68,276.74a15.18,15.18,0,0,0-15.18,15.18h30.368a15.18,15.18,0,0,0-15.189-15.18Z" transform="translate(-726.3 -247.927)" fill="#fff"/>
      </g>
      <g id="Man" transform="translate(640.654 284.907)">
        <path id="Trazado_146" data-name="Trazado 146" d="M661,610.963,663.709,592h13.545l-4.515,20.769Z" transform="translate(-642.627 -320.892)" fill="#e9baba"/>
        <path id="Trazado_147" data-name="Trazado 147" d="M701.9,590.9l-.9,22.575h11.739L715.448,590Z" transform="translate(-646.507 -320.698)" fill="#e9baba"/>
        <path id="Trazado_148" data-name="Trazado 148" d="M723.906,504.991l-10.628,75.031H695.849l2.628-73.974-1.652-42.026h0v-.063l-1.6,23.857-.9,14-13.969,78.209H662.42l8.506-77.171-3.359-66.56h55.526Z" transform="translate(-643.668 -305.789)" fill="url(#linear-gradient-6)"/>
        <path id="Trazado_149" data-name="Trazado 149" d="M655.951,443.17l1.544,8.019s4.018,2.068,5.012,10.782c0,0-3.738.424-4.858-3.865,0,0-2.709,9.138-.235,14.529,0,0-.957,2.637-2.348,1.526,0,0-.957,2.637-3.043.975,0,0-3.449,2.917-3.341-7.224,0,0-1.508,3.323-2.492.28a44.437,44.437,0,0,1,4.38-16.9l-1.409-6.772Z" transform="translate(-642.094 -306.456)" fill="url(#linear-gradient-7)"/>
        <path id="Trazado_150" data-name="Trazado 150" d="M704.02,340.92l-1.057-9.536s9.852,1.057,8.786-14.836c0,0-.316-11.658-2.429-14.836,0,0-25.429-6.321-22.25,12.714,0,0-.957,4.289,3.522,8.208l-.9,17.157Z" transform="translate(-646.032 -292.638)" fill="url(#linear-gradient-8)"/>
        <path id="Trazado_151" data-name="Trazado 151" d="M702.153,605.958s-4.253,8.226-1.418,16.742l35.479.415a13.418,13.418,0,0,0-5.68-9.933,160.6,160.6,0,0,0-15.613-7.612S707.824,615.891,702.153,605.958Z" transform="translate(-647.29 -322.209)" fill="url(#linear-gradient-9)"/>
        <path id="Trazado_152" data-name="Trazado 152" d="M662.925,604.57s-2.835,9.933-1.418,18.448h22.7s0-7.1-4.253-11.351c0,0-4.253-2.835-4.253-5.68C675.694,605.988,667.187,611.668,662.925,604.57Z" transform="translate(-643.541 -322.112)" fill="url(#linear-gradient-10)"/>
        <path id="Trazado_153" data-name="Trazado 153" d="M783,339.647l9.933-5.526,7.143-7.305,14.448-1.869a4.67,4.67,0,0,1,1.68.09l4.425,1.057a.9.9,0,0,1,.3,1.607c-1.716.984-4.515,2.167-7.224,1.643l-3.612.9s2.122,8.01-2.6,9.933a24.193,24.193,0,0,1-8.127,1.9l-9.879,4.623Z" transform="translate(-655.364 -294.986)" fill="url(#linear-gradient-11)"/>
        <path id="Trazado_154" data-name="Trazado 154" d="M779.223,349.836l-27.6,23.9a11.739,11.739,0,0,1-10.836,2.429L717.819,369.7l3.991,61.4.135,2.1H665.21c-.126,0-.235-.217-.316-.623-1.138-5.68,2.05-48.762,2.709-57.341,0-.533.072-.9.09-1.183s0-.28,0-.28l-.244.84-.235.813-7.531,25.772v37.511l-14.565.081-3.4-42.441a18.484,18.484,0,0,1,.975-7.585L654.9,353.755a11.956,11.956,0,0,1,7.965-7.432l21.78-6.484h15.306l21.483,4.578,22.575,10.836L772,339Z" transform="translate(-641.654 -296.352)" fill="url(#linear-gradient-12)"/>
        <path id="Trazado_155" data-name="Trazado 155" d="M713.31,295.509c-10.61-8.949-19.64.984-19.64.984-1.174-1.174-9.03,0-11.432,6.222-4.334,11.215,7.54,22.033,7.54,22.033a7.883,7.883,0,0,0,7.937-1.806l1.951-6.962c-3.666-5.87,0-7.567,1.806-6.854,1.156.452,1.752,2.086,2.14,3.612l2.709,1.806v-6.321C711.143,306.616,721.139,302.1,713.31,295.509Z" transform="translate(-645.498 -291.771)" fill="#212785"/>
        <path id="Trazado_156" data-name="Trazado 156" d="M728.409,434,719,369l5.418,3.612Z" transform="translate(-648.253 -299.262)" fill="#e9aac3"/>
        <path id="Trazado_157" data-name="Trazado 157" d="M669.2,378.43l-.235.813.027-.3Z" transform="translate(-643.4 -300.177)" fill="#e9aac3"/>
        <path id="Trazado_158" data-name="Trazado 158" d="M673.333,369l-5.969,66.479c-1.138-5.68,2.05-48.762,2.709-57.341,0-.533.072-.9.09-1.183Z" transform="translate(-644.124 -299.262)" fill="#e9aac3"/>
        <path id="Trazado_159" data-name="Trazado 159" d="M698.551,465.676l-1.6,23.857L690,454Z" transform="translate(-645.44 -307.507)" fill="#131313"/>
      </g>
    </g>
  </g>
</svg>
